<?xml version="1.0" encoding="UTF-8" standalone="no"?>
<!DOCTYPE svg PUBLIC "-//W3C//DTD SVG 1.1//EN" "http://www.w3.org/Graphics/SVG/1.1/DTD/svg11.dtd">
<svg width="186px" height="234px" version="1.1" xmlns="http://www.w3.org/2000/svg" xmlns:xlink="http://www.w3.org/1999/xlink" xml:space="preserve" xmlns:serif="http://www.serif.com/" style="fill-rule:evenodd;clip-rule:evenodd;stroke-linejoin:round;stroke-miterlimit:2;">
    <g transform="matrix(0.457021,0,0,0.457021,-24.3793,-0.0022851)">
        <g id="food_machine">
            <path d="M96.007,501.339C96.007,507.23 91.234,511.995 85.343,511.995C79.452,511.995 74.671,507.229 74.671,501.339C74.671,495.449 79.452,490.668 85.343,490.668C91.233,490.668 96.007,495.448 96.007,501.339Z" style="fill:rgb(66,73,83);fill-rule:nonzero;"/>
            <path d="M437.345,501.339C437.345,507.23 432.564,511.995 426.657,511.995C420.782,511.995 416.001,507.229 416.001,501.339C416.001,495.449 420.782,490.668 426.657,490.668C432.563,490.668 437.345,495.448 437.345,501.339Z" style="fill:rgb(66,73,83);fill-rule:nonzero;"/>
            <rect x="64.008" y="10.677" width="383.992" height="479.991" style="fill:rgb(100,108,119);"/>
            <path d="M362.658,202.673C362.658,208.564 357.892,213.345 352.002,213.345C346.112,213.345 341.347,208.564 341.347,202.673C341.347,196.782 346.112,192.001 352.002,192.001C357.892,192.001 362.658,196.782 362.658,202.673Z" style="fill:rgb(169,177,188);fill-rule:nonzero;"/>
            <path d="M394.657,202.673C394.657,208.564 389.891,213.345 384.001,213.345C378.111,213.345 373.345,208.564 373.345,202.673C373.345,196.782 378.111,192.001 384.001,192.001C389.891,192.001 394.657,196.782 394.657,202.673Z" style="fill:rgb(169,177,188);fill-rule:nonzero;"/>
            <path d="M426.657,202.673C426.657,208.564 421.891,213.345 416.001,213.345C410.111,213.345 405.345,208.564 405.345,202.673C405.345,196.782 410.111,192.001 416.001,192.001C421.891,192.001 426.657,196.782 426.657,202.673Z" style="fill:rgb(169,177,188);fill-rule:nonzero;"/>
            <path d="M362.658,234.672C362.658,240.563 357.892,245.344 352.002,245.344C346.112,245.344 341.347,240.563 341.347,234.672C341.347,228.782 346.112,224.001 352.002,224.001C357.892,224.001 362.658,228.782 362.658,234.672Z" style="fill:rgb(169,177,188);fill-rule:nonzero;"/>
            <path d="M394.657,234.672C394.657,240.563 389.891,245.344 384.001,245.344C378.111,245.344 373.345,240.563 373.345,234.672C373.345,228.782 378.111,224.001 384.001,224.001C389.891,224.001 394.657,228.782 394.657,234.672Z" style="fill:rgb(169,177,188);fill-rule:nonzero;"/>
            <path d="M426.657,234.672C426.657,240.563 421.891,245.344 416.001,245.344C410.111,245.344 405.345,240.563 405.345,234.672C405.345,228.782 410.111,224.001 416.001,224.001C421.891,224.001 426.657,228.782 426.657,234.672Z" style="fill:rgb(169,177,188);fill-rule:nonzero;"/>
            <path d="M362.658,266.672C362.658,272.563 357.892,277.344 352.002,277.344C346.112,277.344 341.347,272.563 341.347,266.672C341.347,260.781 346.111,256 352.002,256C357.893,256 362.658,260.781 362.658,266.672Z" style="fill:rgb(169,177,188);fill-rule:nonzero;"/>
            <path d="M394.657,266.672C394.657,272.563 389.891,277.344 384.001,277.344C378.111,277.344 373.345,272.563 373.345,266.672C373.345,260.781 378.11,256 384.001,256C389.892,256 394.657,260.781 394.657,266.672Z" style="fill:rgb(169,177,188);fill-rule:nonzero;"/>
            <path d="M426.657,266.672C426.657,272.563 421.891,277.344 416.001,277.344C410.111,277.344 405.345,272.563 405.345,266.672C405.345,260.781 410.11,256 416.001,256C421.892,256 426.657,260.781 426.657,266.672Z" style="fill:rgb(169,177,188);fill-rule:nonzero;"/>
            <path d="M416.001,149.346L352.002,149.346C346.111,149.346 341.347,154.112 341.347,160.002C341.347,165.892 346.112,170.673 352.002,170.673L416.001,170.673C421.892,170.673 426.657,165.892 426.657,160.002C426.657,154.112 421.892,149.346 416.001,149.346Z" style="fill:rgb(79,192,232);fill-rule:nonzero;"/>
            <rect x="351.893" y="362.67" width="64.218" height="63.998" style="fill:rgb(100,108,119);"/>
            <path d="M394.657,373.342C394.657,379.233 389.891,383.998 384.001,383.998C378.111,383.998 373.345,379.232 373.345,373.342C373.345,367.452 378.111,362.67 384.001,362.67C389.891,362.67 394.657,367.451 394.657,373.342Z" style="fill:rgb(169,177,188);fill-rule:nonzero;"/>
            <rect x="74.671" y="21.348" width="234.675" height="319.994" style="fill:rgb(244,246,249);"/>
            <path d="M128.006,426.668C116.24,426.668 106.671,417.106 106.671,405.341C106.671,393.575 116.241,383.998 128.006,383.998L256.004,383.998C267.77,383.998 277.347,393.575 277.347,405.341C277.347,417.106 267.77,426.668 256.004,426.668L128.006,426.668Z" style="fill:rgb(169,177,188);fill-rule:nonzero;"/>
            <g>
                <rect x="85.343" y="42.676" width="63.999" height="85.327" style="fill:rgb(172,146,234);"/>
            </g>
            <g>
                <rect x="160.006" y="149.346" width="63.999" height="85.326" style="fill:rgb(70,206,173);"/>
            </g>
            <g>
                <path d="M224.004,42.676L160.006,42.676L170.669,63.926L160.006,128.002L224.004,128.002L213.341,63.926L224.004,42.676Z" style="fill:rgb(94,156,234);fill-rule:nonzero;"/>
            </g>
            <g>
                <path d="M298.659,149.346L234.668,149.346L245.34,170.595L234.668,234.672L298.659,234.672L288.003,170.595L298.659,149.346Z" style="fill:rgb(79,192,232);fill-rule:nonzero;"/>
            </g>
            <g>
                <path d="M298.659,53.348C298.659,47.457 284.347,42.676 266.668,42.676C248.996,42.676 234.668,47.457 234.668,53.348L234.668,128.003L298.659,128.003L298.659,53.348Z" style="fill:rgb(254,205,87);fill-rule:nonzero;"/>
            </g>
            <g>
                <rect x="234.668" y="256" width="63.991" height="85.342" style="fill:rgb(94,156,234);"/>
            </g>
            <g>
                <path d="M149.342,256L85.343,256L96.007,277.25L85.343,341.342L149.342,341.342L138.67,277.25L149.342,256Z" style="fill:rgb(251,109,81);fill-rule:nonzero;"/>
            </g>
            <g>
                <path d="M224.004,266.672C224.004,260.781 209.676,256 192.004,256C174.333,256 160.005,260.781 160.005,266.672L160.005,341.342L224.004,341.342L224.004,266.672Z" style="fill:rgb(158,211,106);fill-rule:nonzero;"/>
            </g>
            <g>
                <path d="M149.342,160.018C149.342,154.112 135.014,149.346 117.342,149.346C99.671,149.346 85.343,154.112 85.343,160.018L85.343,234.672L149.342,234.672L149.342,160.018Z" style="fill:rgb(237,85,100);fill-rule:nonzero;"/>
            </g>
            <path d="M53.344,0.005L53.344,501.339L458.656,501.339L458.656,0.005L53.344,0.005ZM309.347,21.348L309.347,106.675L74.671,106.675L74.671,21.348L309.347,21.348ZM74.671,213.345L74.671,128.003L309.346,128.003L309.346,213.345L74.671,213.345ZM309.347,234.672L309.347,319.998L74.671,319.998L74.671,234.672L309.347,234.672ZM74.671,479.996L74.671,341.342L309.346,341.342L309.346,479.996L74.671,479.996ZM437.345,479.996L330.659,479.996L330.659,21.348L437.345,21.348L437.345,479.996Z" style="fill:rgb(66,73,83);fill-rule:nonzero;"/>
            <path d="M341.222,351.998L341.222,437.34L426.783,437.34L426.783,351.998L341.222,351.998ZM405.438,415.997L362.564,415.997L362.564,373.342L405.438,373.342L405.438,415.997Z" style="fill:rgb(66,73,83);fill-rule:nonzero;"/>
        </g>
    </g>
</svg>
